<?xml version="1.0" encoding="UTF-8" standalone="no"?>
<!-- Created with Inkscape (http://www.inkscape.org/) -->

<svg
   xmlns:dc="http://purl.org/dc/elements/1.1/"
   xmlns:cc="http://creativecommons.org/ns#"
   xmlns:rdf="http://www.w3.org/1999/02/22-rdf-syntax-ns#"
   xmlns:svg="http://www.w3.org/2000/svg"
   xmlns="http://www.w3.org/2000/svg"
   xmlns:sodipodi="http://sodipodi.sourceforge.net/DTD/sodipodi-0.dtd"
   xmlns:inkscape="http://www.inkscape.org/namespaces/inkscape"
   version="1.1"
   id="svg2"
   width="1066.6667"
   height="1066.6667"
   viewBox="0 0 1066.6667 1066.6667"
   sodipodi:docname="logo_module_inv.svg"
   inkscape:version="0.92.1 r15371"
   inkscape:export-filename="/home/sylvestre/web/graphisme/logo_module.png"
   inkscape:export-xdpi="96"
   inkscape:export-ydpi="96">
  <metadata
     id="metadata8">
    <rdf:RDF>
      <cc:Work
         rdf:about="">
        <dc:format>image/svg+xml</dc:format>
        <dc:type
           rdf:resource="http://purl.org/dc/dcmitype/StillImage" />
        <dc:title />
      </cc:Work>
    </rdf:RDF>
  </metadata>
  <defs
     id="defs6" />
  <sodipodi:namedview
     pagecolor="#ffffff"
     bordercolor="#666666"
     borderopacity="1"
     objecttolerance="10"
     gridtolerance="10"
     guidetolerance="10"
     inkscape:pageopacity="0"
     inkscape:pageshadow="2"
     inkscape:window-width="1920"
     inkscape:window-height="983"
     id="namedview4"
     showgrid="true"
     inkscape:zoom="0.62578945"
     inkscape:cx="522.59336"
     inkscape:cy="571.30184"
     inkscape:window-x="1920"
     inkscape:window-y="27"
     inkscape:window-maximized="1"
     inkscape:current-layer="svg2">
    <inkscape:grid
       type="xygrid"
       id="grid3705" />
  </sodipodi:namedview>
  <g
     inkscape:groupmode="layer"
     id="layer1"
     inkscape:label="Layer 1"
     style="display:inline"
     inkscape:highlight-color="4294967295" />
  <rect
     style="fill:#ffffff;stroke-width:1.00908065"
     id="rect3680"
     width="1105"
     height="1115"
     x="-20"
     y="-33.333252" />
  <rect
     style="display:inline;fill:#000000;stroke-width:0.84427714"
     id="rect3727"
     width="1035"
     height="1035"
     x="15"
     y="16.666748" />
  <path
     style="display:inline;fill:#ffffff;stroke-width:1.41971469"
     d="m 53.872662,1010.3219 c 1.928079,-6.1833 103.988358,-274.36079 105.437478,-277.05168 1.51652,-2.81607 2.02754,-2.86606 29.30231,-2.86606 27.27331,0 27.78593,0.0502 29.30719,2.86606 1.52759,2.82768 103.23202,269.99298 105.27347,276.54078 l 1.05283,3.3769 h -24.30227 -24.30231 l -12.77581,-36.62 -12.77584,-36.61989 -61.23085,-0.33341 -61.23084,-0.33345 -1.34872,2.88103 c -0.7418,1.58458 -6.60179,18.21397 -13.02225,36.95429 l -11.67353,34.07213 -24.302291,9e-4 H 52.978948 Z M 237.81247,906.50703 c -0.47142,-1.22604 -11.55372,-33.13269 -24.62737,-70.90369 -13.07365,-37.771 -24.06296,-68.91015 -24.42065,-69.19813 -0.35773,-0.28794 -1.74199,2.5283 -3.07612,6.25835 -1.76387,4.9314 -36.82722,105.81703 -46.51804,133.84347 -0.72238,2.08915 2.37785,2.22916 49.36425,2.22916 47.01924,0 50.08173,-0.13855 49.27793,-2.22916 z m 213.06659,-34.39261 0.40251,-141.07336 46.67914,-0.38555 c 54.29817,-0.44848 81.33716,1.05451 100.9119,5.60923 44.55224,10.36663 68.44534,36.5435 68.37552,74.91103 -0.0406,22.35808 -6.15678,36.23463 -21.78313,49.42276 -9.98932,8.43064 -25.26919,15.25277 -39.48277,17.62813 l -9.11174,1.52273 6.32274,2.08763 c 15.26782,5.0411 24.86475,11.7591 35.93377,25.15422 3.39825,4.11237 20.04066,29.70319 36.9831,56.86852 l 30.80448,49.39154 -25.6445,-0.3502 -25.64453,-0.3502 -24.71845,-42.05817 c -25.22108,-42.91342 -34.59726,-56.38016 -45.19341,-64.91017 -11.85486,-9.54325 -27.26045,-12.43517 -63.22665,-11.86882 l -23.73516,0.37375 -0.41124,59.55014 -0.41123,59.55027 H 474.20299 450.47656 Z M 579.9761,859.33675 c 25.76647,-6.74826 37.07008,-20.54663 37.27241,-45.49868 0.20987,-25.88098 -10.98924,-40.10866 -37.79709,-48.01854 -8.49503,-2.50651 -13.28206,-2.85447 -45.49239,-3.3068 l -35.99832,-0.50553 v 49.58689 c 0,27.27279 0.53404,50.02885 1.18676,50.56901 0.65271,0.54018 16.85198,0.71561 35.99833,0.38985 29.51565,-0.5022 36.33573,-0.99148 44.8303,-3.2162 z m 294.58251,29.01864 V 763.52296 h -42.72329 -42.72331 v -16.5594 -16.5594 h 106.80824 106.80825 v 16.5594 16.5594 H 962.3787 922.02892 V 888.35539 1013.1879 H 898.29377 874.55861 Z M 156.91092,680.73416 C 144.63367,679.3616 112.64392,669.0614 100.67376,662.62667 78.17646,650.53295 67.095142,633.2395 62.889681,603.66106 61.905934,596.74197 61.254565,552.16124 61.246723,491.21415 l -0.01302,-100.98271 23.339576,0.3525 23.339591,0.3525 0.82238,112.09441 c 0.58275,79.42814 1.35034,113.2807 2.63403,116.16516 2.99331,6.72597 11.24836,15.37441 18.34584,19.22005 16.74517,9.07312 40.90966,13.74607 65.16197,12.60107 15.98827,-0.75483 37.05601,-3.81296 38.72496,-5.62117 0.49407,-0.53532 3.41086,-1.90662 6.48171,-3.04733 11.28213,-4.19091 20.05566,-12.06144 25.37696,-22.76508 1.81873,-3.65833 2.36309,-24.57138 3.03382,-116.5527 l 0.81741,-112.09441 h 22.15283 22.15282 l 0.46224,92.35051 c 0.5895,117.7672 -0.9021,136.16923 -12.59636,155.4036 -6.28374,10.33535 -20.66411,22.13978 -34.57304,28.38006 -5.67229,2.54487 -19.20132,6.75141 -30.06455,9.34786 -18.71236,4.47251 -21.08298,4.73824 -45.06879,5.05201 -13.92463,0.18218 -29.61443,-0.14916 -34.86621,-0.73632 z M 450.49038,531.69135 v -141.3918 h 23.73517 23.73516 v 125.4693 125.46931 h 84.65541 84.65541 v 15.9225 15.92249 H 558.88096 450.49038 Z m 339.01031,0.31845 0.40249,-141.07336 h 103.64355 103.6436 v 15.92251 15.9225 l -80.30402,0.33011 -80.30396,0.33013 v 41.38683 41.38683 h 76.74369 76.74374 v 15.91027 15.91027 l -76.34817,0.33068 -76.3481,0.33068 -0.41354,51.27046 -0.41353,51.27045 h 83.09103 83.09103 v 15.9225 15.92249 H 895.91334 789.09821 Z M 517.74001,336.26673 C 489.5157,331.03296 468.5243,318.92632 454.61491,299.85974 436.07203,274.4417 427.95503,241.708 427.92435,192.22363 c -0.0383,-61.83106 13.30552,-100.35041 43.00132,-124.130595 19.28581,-15.443945 41.14551,-21.941916 73.7142,-21.91213 79.71839,0.07291 116.62249,46.036865 116.74512,145.405835 0.0749,60.63656 -13.21274,100.24387 -41.39509,123.38967 -12.15504,9.98277 -20.24801,14.03073 -37.54761,18.78062 -10.62113,2.91623 -15.67386,3.49083 -33.84658,3.8491 -14.30363,0.28198 -24.49853,-0.16055 -30.8557,-1.3394 z m 50.99342,-32.55718 c 9.2408,-3.20012 21.974,-13.22739 27.13162,-21.36587 4.62435,-7.29697 10.48883,-24.31075 13.06178,-37.89425 2.95313,-15.59076 3.00936,-88.65016 0.0799,-103.81471 -6.57941,-34.05865 -18.09079,-51.701104 -39.06791,-59.875839 -10.62697,-4.141301 -31.87325,-5.084492 -43.79903,-1.944379 -24.59554,6.476124 -37.71181,23.553998 -45.03387,58.635728 -2.41412,11.56661 -2.92446,21.01392 -2.92446,54.13651 0,41.52791 1.0482,51.81606 7.3187,71.83345 7.24088,23.11515 21.85612,37.72438 42.44691,42.42946 10.53018,2.40621 30.71704,1.34699 40.7864,-2.1401 z M 64.398433,191.58674 V 50.194922 h 31.440429 31.440448 l 29.72782,70.744128 c 16.35033,38.90927 30.19293,70.97551 30.76132,71.25831 0.56841,0.28278 14.60208,-31.40877 31.18596,-70.42569 l 30.1525,-70.939846 31.85977,-0.344825 31.85977,-0.344825 V 191.56035 332.97854 H 290.68146 268.5365 l -0.40343,-123.46132 -0.40342,-123.46134 -30.66307,73.14623 -30.66305,73.14623 h -17.82938 -17.82939 l -6.24465,-14.33026 c -3.43455,-7.88164 -17.14831,-40.4113 -30.47503,-72.28814 -13.3267,-31.87686 -24.83178,-58.502464 -25.56685,-59.168025 -0.73508,-0.66556 -1.33651,54.505915 -1.33651,122.603255 V 332.97854 H 85.760077 64.398433 Z m 723.519927,0.31843 0.40248,-141.073346 47.47033,0.128165 c 62.49029,0.168715 80.85757,2.648009 110.7641,14.951395 18.33326,7.542212 37.12692,22.91177 46.97938,38.420046 14.25835,22.44328 20.05515,43.84943 21.38625,78.9756 1.87,49.3499 -8.6169,84.92142 -32.52633,110.32862 -19.65466,20.88583 -51.96472,33.80151 -95.13571,38.02966 -7.37463,0.72228 -32.83369,1.31323 -56.57571,1.31323 h -43.16728 z m 112.74893,106.04901 c 47.30275,-10.65635 64.49307,-39.00806 64.49307,-106.36744 0,-68.62291 -17.22564,-96.00538 -66.86659,-106.293542 -6.49044,-1.345154 -20.06414,-2.407392 -36.78951,-2.879041 L 835,81.666748 V 191.55816 301.44957 l 28.08659,-0.67829 c 19.1799,-0.4632 31.09735,-1.35653 37.5807,-2.8171 z"
     id="path3682"
     inkscape:connector-curvature="0" />
</svg>
