<svg id="Calque_1" data-name="Calque 1" xmlns="http://www.w3.org/2000/svg" xmlns:xlink="http://www.w3.org/1999/xlink" viewBox="0 0 497.6 155.2"><defs><style>.cls-1,.cls-4,.cls-6{fill:none;}.cls-2{fill:#fff;}.cls-3{clip-path:url(#clip-path);}.cls-4{stroke:#fff;}.cls-4,.cls-6{stroke-width:1.16px;}.cls-5{fill:#e0221b;}.cls-6{stroke:#e0221b;}</style><clipPath id="clip-path"><rect class="cls-1" x="1.32" y="2.91" width="492" height="149.51"/></clipPath></defs><title>logo-cinessonne</title><rect class="cls-2" x="2" y="84.05" width="27.46" height="27.46"/><g class="cls-3"><rect class="cls-4" x="2" y="84.05" width="27.46" height="27.46"/></g><rect class="cls-5" x="42.61" y="84.05" width="27.46" height="27.46"/><rect class="cls-6" x="42.61" y="84.05" width="27.46" height="27.46"/><rect class="cls-5" x="122.91" y="84.05" width="27.46" height="27.46"/><rect class="cls-6" x="122.91" y="84.05" width="27.46" height="27.46"/><rect class="cls-2" x="42.61" y="124.28" width="27.46" height="27.46"/><g class="cls-3"><rect class="cls-4" x="42.61" y="124.28" width="27.46" height="27.46"/></g><rect class="cls-5" x="2" y="124.28" width="27.46" height="27.46"/><g class="cls-3"><rect class="cls-6" x="2" y="124.28" width="27.46" height="27.46"/></g><rect class="cls-5" x="82.61" y="124.28" width="27.46" height="27.46"/><g class="cls-3"><rect class="cls-6" x="82.61" y="124.28" width="27.46" height="27.46"/></g><rect class="cls-2" x="122.91" y="124.28" width="27.46" height="27.46"/><g class="cls-3"><rect class="cls-4" x="122.91" y="124.28" width="27.46" height="27.46"/></g><rect class="cls-2" x="2" y="3.59" width="27.46" height="27.46"/><g class="cls-3"><rect class="cls-4" x="2" y="3.59" width="27.46" height="27.46"/></g><rect class="cls-5" x="42.61" y="3.59" width="27.46" height="27.46"/><g class="cls-3"><rect class="cls-6" x="42.61" y="3.59" width="27.46" height="27.46"/></g><rect class="cls-2" x="82.61" y="3.59" width="27.46" height="27.46"/><g class="cls-3"><rect class="cls-4" x="82.61" y="3.59" width="27.46" height="27.46"/></g><rect class="cls-5" x="122.91" y="3.59" width="27.46" height="27.46"/><g class="cls-3"><rect class="cls-6" x="122.91" y="3.59" width="27.46" height="27.46"/></g><rect class="cls-5" x="2" y="43.82" width="27.46" height="27.46"/><g class="cls-3"><rect class="cls-6" x="2" y="43.82" width="27.46" height="27.46"/></g><rect class="cls-5" x="82.61" y="43.82" width="27.46" height="27.46"/><rect class="cls-6" x="82.61" y="43.82" width="27.46" height="27.46"/><rect class="cls-2" x="122.91" y="43.82" width="27.46" height="27.46"/><rect class="cls-4" x="122.91" y="43.82" width="27.46" height="27.46"/><rect class="cls-2" x="42.61" y="43.82" width="27.46" height="27.46"/><rect class="cls-4" x="42.61" y="43.82" width="27.46" height="27.46"/><g class="cls-3"><path class="cls-5" d="M225.81,88.07l2.73,2a18.2,18.2,0,0,1-15.29,7.94,18.56,18.56,0,0,1-18.7-18.75,19.14,19.14,0,0,1,18.7-18.74A18.48,18.48,0,0,1,228,68l-2.77,2A15,15,0,0,0,213.15,64C204.87,64,198,71.32,198,79.35a15.28,15.28,0,0,0,27.8,8.72ZM213.15,64.6a14.49,14.49,0,0,1,11.59,5.7l-2.73,2a11.11,11.11,0,0,0-8.76-4.28,11.44,11.44,0,0,0-11.2,11.29,11.24,11.24,0,0,0,20.5,6.33l2.77,2a14.37,14.37,0,0,1-12.17,6.33,14.51,14.51,0,0,1-14.56-14.71C198.59,71.81,205,64.6,213.15,64.6Z"/><path class="cls-5" d="M235.06,97.56H231.6V61h3.46Zm4-36.52V97.56h-3.46V61Z"/><path class="cls-5" d="M247.71,68.49V97.56h-3.45V60.66c0-.44.09-.39.39-.1l20.88,20.59V61H269V89.29ZM273,61V98c0,.49,0,.59-.48.2l-20.8-20.06V97.56H248.3V69.91l21.28,20.74V61Z"/><path class="cls-5" d="M278.48,64.5V61h3.46V64.5Zm3.46,29h-3.46V65.09h3.46Zm0,4h-3.46V94.11h3.46ZM282.52,61h20.11V64.5H282.52Zm0,4.05h20.11v3.45H286v8h12.51V80h-16Zm20.31,28.43H282.52V80.62h16v3.46H286v6h16.85Zm0,.59v3.45H282.52V94.11Z"/><path class="cls-5" d="M330.43,87.14c0,6.53-5.4,10.91-12.56,10.91a14,14,0,0,1-12.17-6.67l2.82-2a10.6,10.6,0,0,0,9.25,5.26c6,0,9.2-3.5,9.2-7.3,0-5.94-6.23-7.94-9.39-9.25-5-2.05-7.26-4-7.26-7.65,0-3.31,2.73-5.84,7.5-5.84,3.8,0,6.48,1.12,8.28,3.6l-2.78,2a6.61,6.61,0,0,0-5.4-2.19c-2.68,0-4.09,1.07-4.09,2.33,0,1.76.53,2.59,5.74,4.78C326,77.79,330.43,80.76,330.43,87.14Zm-24.1-16.75c0-5.74,4.77-9.88,11.44-9.88,5.07,0,9.35,2,11.64,5.26l-2.83,2c-1.94-2.68-4.91-3.84-8.76-3.84-5,0-8.08,2.72-8.08,6.37,0,4.48,3,6.24,7.59,8.23,3,1.32,9.06,3,9.06,8.72,0,3.46-2.82,6.72-8.62,6.72A9.92,9.92,0,0,1,309,89l2.77-2c.44.58,2.29,3.45,5.85,3.55,3,.1,5.25-1,5.25-3.16,0-2.88-2.92-3.9-8.23-6.24S306.33,75.9,306.33,70.39Z"/><path class="cls-5" d="M356.09,87.14c0,6.53-5.41,10.91-12.57,10.91a14,14,0,0,1-12.17-6.67l2.83-2a10.59,10.59,0,0,0,9.25,5.26c6,0,9.2-3.5,9.2-7.3,0-5.94-6.23-7.94-9.4-9.25-5-2.05-7.25-4-7.25-7.65,0-3.31,2.72-5.84,7.5-5.84,3.79,0,6.47,1.12,8.27,3.6l-2.77,2A6.62,6.62,0,0,0,343.57,68c-2.67,0-4.09,1.07-4.09,2.33,0,1.76.54,2.59,5.75,4.78C351.61,77.79,356.09,80.76,356.09,87.14ZM332,70.39c0-5.74,4.78-9.88,11.45-9.88,5.06,0,9.35,2,11.63,5.26l-2.82,2c-1.95-2.68-4.92-3.84-8.76-3.84-5,0-8.09,2.72-8.09,6.37,0,4.48,3,6.24,7.6,8.23,3,1.32,9.06,3,9.06,8.72,0,3.46-2.83,6.72-8.62,6.72a9.94,9.94,0,0,1-8.77-5l2.78-2c.44.58,2.29,3.45,5.84,3.55,3,.1,5.26-1,5.26-3.16,0-2.88-2.92-3.9-8.23-6.24S332,75.9,332,70.39Z"/><path class="cls-5" d="M395.47,79.3a18.65,18.65,0,1,1-37.29,0,19.13,19.13,0,0,1,18.69-18.74A18.72,18.72,0,0,1,395.47,79.3Zm-3.45,0A15.19,15.19,0,0,0,376.78,64c-8.28,0-15.15,7.3-15.15,15.33a15.11,15.11,0,0,0,15.24,15.24A14.94,14.94,0,0,0,392,79.35ZM376.78,64.6a14.59,14.59,0,0,1,14.65,14.75,14.61,14.61,0,1,1-29.21,0C362.22,71.81,368.6,64.6,376.78,64.6ZM388,79.35a11.08,11.08,0,0,0-11.11-11.29,11.43,11.43,0,0,0-11.19,11.29,11,11,0,0,0,11.19,11.2A10.86,10.86,0,0,0,388,79.35Z"/><path class="cls-5" d="M402.58,68.49V97.56h-3.46V60.66c0-.44.1-.39.39-.1L420.4,81.15V61h3.45V89.29ZM427.9,61V98c0,.49,0,.59-.49.2L406.62,78.09V97.56h-3.46V69.91l21.28,20.74V61Z"/><path class="cls-5" d="M436.66,68.49V97.56H433.2V60.66c0-.44.1-.39.39-.1l20.89,20.59V61h3.45V89.29ZM462,61V98c0,.49-.05.59-.49.2L440.7,78.09V97.56h-3.46V69.91l21.28,20.74V61Z"/><path class="cls-5" d="M467.43,64.5V61h3.45V64.5Zm3.45,29h-3.45V65.09h3.45Zm0,4h-3.45V94.11h3.45ZM471.47,61h20.11V64.5H471.47Zm0,4.05h20.11v3.45H474.92v8h12.52V80h-16Zm20.3,28.43h-20.3V80.62h16v3.46H474.92v6h16.85Zm0,.59v3.45h-20.3V94.11Z"/><path class="cls-5" d="M206.36,137.22a8.13,8.13,0,0,0-2.31-.32c-3.6,0-5.45,2.69-5.45,6.15,0,3.15,1.54,6.5,6.36,6.5a10.79,10.79,0,0,0,4.65-1.05l-.21,3.39a13.6,13.6,0,0,1-5,1c-7.27,0-9.75-4.86-9.75-9.4,0-5.56,3.42-9.61,9.78-9.61a12.33,12.33,0,0,1,5.17.94v5.14h-3.28Z"/><path class="cls-5" d="M213.1,149.55h2.38l.06-12.44h-2.76v-2.86h6.68l-.07,15.3h2.44v2.87H213.1Zm4.4-24.42a2.69,2.69,0,1,1-2.69,2.69A2.67,2.67,0,0,1,217.5,125.13Z"/><path class="cls-5" d="M225.12,149.55h2.06l.07-12.44H224.7v-2.86h6.46a24.47,24.47,0,0,1-.35,4h.07a6.27,6.27,0,0,1,6.4-4.44c4.26,0,6.32,2.69,6.32,7,0,2.9-.1,5.8-.14,8.7h2.38v2.87h-8.35v-2.87h2.06c0-2.65.14-5.34.14-8s-1.19-4.44-3.67-4.44c-2.69,0-4.72,2.14-4.79,5.52l-.14,6.92h2.45v2.87h-8.42Z"/><path class="cls-5" d="M264.25,151.58a17.59,17.59,0,0,1-6.4,1.26c-6,0-9.57-3.74-9.57-9.44,0-5.38,3-9.57,8.91-9.57,5.45,0,8.21,4,8.21,9.61V144h-13c0,3.53,2.62,5.8,6.22,5.8a12.81,12.81,0,0,0,5.84-1.4Zm-3-10.27V141a4.16,4.16,0,0,0-4.3-4.27c-3.32,0-4.44,2.41-4.58,4.62Zm-7.8-10.84,7.06-5.87,2.1,2-6.95,5.59Z"/><path class="cls-5" d="M268.5,149.55h2.07l.07-12.44h-2.55v-2.86h6.46a25.62,25.62,0,0,1-.35,4h.07a6.17,6.17,0,0,1,6.22-4.44c3.6,0,5.24,1.85,5.59,4.12h.07c.84-2.65,3.15-4.12,6.22-4.12,4.19,0,6.26,2.69,6.26,7,0,2.9,0,5.8-.14,8.7h2.37v2.87h-8.35v-2.87h2.06c.11-2.65.14-5.34.14-8s-1.19-4.44-3.67-4.44c-2.65,0-4.36,2.14-4.44,5.52l-.06,6.92h2.3v2.87h-8.21v-2.87h2l.07-7.3c0-2.8-.7-5.14-3.63-5.14-2.34,0-4.48,2.14-4.51,5.52l-.07,6.92h2.45v2.87H268.5Z"/><path class="cls-5" d="M305.05,135.47a15.73,15.73,0,0,1,7.2-1.64c5.38,0,7.09,2.66,7.09,6.95,0,2.94-.11,5.84-.14,8.77h2.45v2.87h-5.77a23.37,23.37,0,0,1,.31-3.77h-.07a5.82,5.82,0,0,1-6,4.19c-4.37,0-5.8-2.9-5.8-5.21,0-4.79,4.86-5.41,7.83-5.55l3.74-.21V140.5c0-2.23-.81-3.81-4-3.81a9.66,9.66,0,0,0-3.29.63V140h-3.49Zm6,14.29a4.5,4.5,0,0,0,4.68-4.61v-.73c-4,0-7.58.21-7.58,2.9C308.19,148.68,309.24,149.76,311.09,149.76Z"/><path class="cls-2" d="M336.87,149.55h2.38l.07-12.44h-2.76v-2.86h6.67l-.07,15.3h2.45v2.87h-8.74Zm4.41-24.42a2.69,2.69,0,1,1-2.69,2.69A2.67,2.67,0,0,1,341.28,125.13Z"/><path class="cls-2" d="M347.39,134.25h2.76l.07-4.09,3.95-.28-.14,4.37h5.2v2.86H354c0,2.9-.07,5.77-.07,8.49,0,3.32.73,4.16,2.55,4.16a8.57,8.57,0,0,0,3-.7l-.14,2.87a9.47,9.47,0,0,1-4,.91c-3.84,0-5.34-1.51-5.34-5.59,0-2.34.06-7,.1-10.14h-2.76Z"/><path class="cls-2" d="M362.06,149.55h2.38l.07-12.44h-2.76v-2.86h6.67l-.07,15.3h2.45v2.87h-8.74Zm4.41-24.42a2.69,2.69,0,1,1-2.7,2.69A2.67,2.67,0,0,1,366.47,125.13Z"/><path class="cls-2" d="M374.08,149.55h2.06l.07-12.44h-2.55v-2.86h6.47a25.62,25.62,0,0,1-.35,4h.07a6.26,6.26,0,0,1,6.39-4.44c4.26,0,6.32,2.69,6.32,7,0,2.9-.1,5.8-.13,8.7h2.37v2.87h-8.35v-2.87h2.06c0-2.65.14-5.34.14-8s-1.19-4.44-3.67-4.44c-2.69,0-4.71,2.14-4.79,5.52l-.13,6.92h2.44v2.87h-8.42Z"/><path class="cls-2" d="M413.21,151.58a17.58,17.58,0,0,1-6.39,1.26c-6,0-9.58-3.74-9.58-9.44,0-5.38,3-9.57,8.91-9.57,5.45,0,8.21,4,8.21,9.61V144h-13c0,3.53,2.63,5.8,6.22,5.8a12.74,12.74,0,0,0,5.84-1.4Zm-3-10.27V141a4.16,4.16,0,0,0-4.3-4.27c-3.32,0-4.44,2.41-4.58,4.62Zm-7.79-10.84,7.06-5.87,2.09,2-7,5.59Z"/><path class="cls-2" d="M417.33,149.55h2.2l.07-12.44h-2.76v-2.86h6.46a44.14,44.14,0,0,1-.21,5l.07.07c.7-3.43,2.69-5.45,5.32-5.45a7.22,7.22,0,0,1,2.2.31l-.42,3.46a5,5,0,0,0-1.78-.28c-3.46,0-4.93,3.29-5,6.5l-.07,5.66h2.66v2.87h-8.77Z"/><path class="cls-2" d="M434,135.47a15.73,15.73,0,0,1,7.2-1.64c5.38,0,7.09,2.66,7.09,6.95,0,2.94-.1,5.84-.14,8.77h2.45v2.87h-5.76a23.37,23.37,0,0,1,.31-3.77h-.07a5.84,5.84,0,0,1-6.05,4.19c-4.36,0-5.8-2.9-5.8-5.21,0-4.79,4.86-5.41,7.83-5.55l3.74-.21V140.5c0-2.23-.8-3.81-4-3.81a9.59,9.59,0,0,0-3.28.63V140H434ZM440,149.76a4.5,4.5,0,0,0,4.68-4.61v-.73c-4.05,0-7.58.21-7.58,2.9C437.14,148.68,438.19,149.76,440,149.76Z"/><path class="cls-2" d="M454.08,149.55h2.06l.07-12.44h-2.55v-2.86h6.47a25.62,25.62,0,0,1-.35,4h.07a6.26,6.26,0,0,1,6.39-4.44c4.26,0,6.32,2.69,6.32,7,0,2.9-.1,5.8-.13,8.7h2.37v2.87h-8.35v-2.87h2.06c0-2.65.14-5.34.14-8s-1.19-4.44-3.67-4.44c-2.69,0-4.71,2.14-4.79,5.52l-.13,6.92h2.44v2.87h-8.42Z"/><path class="cls-2" d="M476.61,134.25h2.76l.07-4.09,3.95-.28-.14,4.37h5.21v2.86h-5.21c0,2.9-.07,5.77-.07,8.49,0,3.32.74,4.16,2.55,4.16a8.57,8.57,0,0,0,3-.7l-.14,2.87a9.47,9.47,0,0,1-4,.91c-3.84,0-5.34-1.51-5.34-5.59,0-2.34.07-7,.1-10.14h-2.76Z"/><path class="cls-2" d="M204.93,16.55l-.06-2.09a5.61,5.61,0,0,0-2.88-.58c-1.76,0-3.55.41-3.55,2.13,0,1.36,1.15,1.73,2.23,2l4.3.85c2,.41,4.26,1.25,4.26,4.84,0,4.63-4,5.84-7.88,5.84a19.38,19.38,0,0,1-6.39-1l-.07-4.77h3.38l.07,2.33a10.77,10.77,0,0,0,3.75.71c1.8,0,3.55-.67,3.55-2.47,0-1.48-1.11-2-2.53-2.23l-2.81-.51c-2.7-.5-5.65-1.52-5.65-4.86,0-4.13,3.62-5.55,7.48-5.55a18.59,18.59,0,0,1,6.12,1.15l.06,4.29Z"/><path class="cls-2" d="M214.4,12.7a15.14,15.14,0,0,1,7-1.59c5.21,0,6.87,2.57,6.87,6.73,0,2.84-.1,5.65-.14,8.49h2.37V29.1h-5.58a21.94,21.94,0,0,1,.31-3.65h-.07a5.65,5.65,0,0,1-5.85,4.05c-4.23,0-5.62-2.8-5.62-5,0-4.64,4.7-5.24,7.58-5.38l3.62-.2V17.57c0-2.17-.78-3.69-3.89-3.69a9.11,9.11,0,0,0-3.18.61v2.57H214.4Zm5.85,13.83a4.36,4.36,0,0,0,4.53-4.46v-.71c-3.92,0-7.34.2-7.34,2.8C217.44,25.48,218.46,26.53,220.25,26.53Z"/><path class="cls-2" d="M234.21,26.33h2.13l.13-20.46H233.4V3.1h6.86l-.13,23.23h2.36V29.1h-8.28Z"/><path class="cls-2" d="M245.84,26.33H248l.13-20.46H245V3.1h6.86l-.13,23.23h2.36V29.1h-8.28Z"/><path class="cls-2" d="M272.65,28.29a17.11,17.11,0,0,1-6.19,1.21c-5.81,0-9.26-3.61-9.26-9.12,0-5.21,2.94-9.27,8.62-9.27,5.28,0,7.95,3.86,7.95,9.3v.51H261.19c0,3.41,2.53,5.61,6,5.61a12.51,12.51,0,0,0,5.64-1.35Zm-2.87-9.94V18a4,4,0,0,0-4.16-4.13c-3.21,0-4.3,2.34-4.43,4.47Z"/><path class="cls-2" d="M287.53,16.55l-.07-2.09a5.58,5.58,0,0,0-2.88-.58c-1.75,0-3.55.41-3.55,2.13,0,1.36,1.15,1.73,2.24,2l4.29.85c2,.41,4.26,1.25,4.26,4.84,0,4.63-4,5.84-7.88,5.84a19.49,19.49,0,0,1-6.39-1l-.07-4.77h3.38l.07,2.33a10.79,10.79,0,0,0,3.76.71c1.79,0,3.55-.67,3.55-2.47,0-1.48-1.12-2-2.54-2.23l-2.81-.51c-2.7-.5-5.64-1.52-5.64-4.86,0-4.13,3.61-5.55,7.47-5.55a18.59,18.59,0,0,1,6.12,1.15l.07,4.29Z"/><path class="cls-5" d="M308,12.7a15.1,15.1,0,0,1,7-1.59c5.21,0,6.87,2.57,6.87,6.73,0,2.84-.1,5.65-.14,8.49H324V29.1h-5.58a23,23,0,0,1,.3-3.65h-.06a5.65,5.65,0,0,1-5.85,4.05c-4.23,0-5.62-2.8-5.62-5,0-4.64,4.7-5.24,7.58-5.38l3.62-.2V17.57c0-2.17-.78-3.69-3.89-3.69a9.11,9.11,0,0,0-3.18.61v2.57H308Zm5.85,13.83a4.36,4.36,0,0,0,4.53-4.46v-.71c-3.92,0-7.34.2-7.34,2.8C311,25.48,312,26.53,313.83,26.53Z"/><path class="cls-5" d="M327.79,26.33h2.13l.07-12h-2.67V11.52h6.25a43.48,43.48,0,0,1-.2,4.87l.07.06c.67-3.31,2.6-5.27,5.14-5.27a7.18,7.18,0,0,1,2.13.3l-.41,3.35a4.69,4.69,0,0,0-1.72-.27c-3.35,0-4.77,3.18-4.81,6.29l-.06,5.48h2.57V29.1h-8.49Z"/><path class="cls-5" d="M342.66,11.52h2.68l.06-4,3.82-.27-.13,4.23h5v2.77h-5c0,2.81-.07,5.58-.07,8.22,0,3.21.71,4,2.47,4a8.28,8.28,0,0,0,2.94-.68l-.13,2.78a9.27,9.27,0,0,1-3.89.87c-3.72,0-5.18-1.45-5.18-5.41,0-2.26.07-6.76.11-9.8h-2.68Z"/><path class="cls-5" d="M390.3,17.2h-2.16a12.26,12.26,0,0,1-2.44,7.1,5,5,0,0,0,3.49,2,6,6,0,0,0,1.11-.1V29a9.9,9.9,0,0,1-1.55.1,5.23,5.23,0,0,1-4.2-1.56l-.84-.88c-1.62,1.66-3.55,2.84-7.54,2.84-5.21,0-8.08-3.48-8.08-6.72,0-2.84,1.69-4.74,3.68-6.12l1.22-.85-1-1.08a6.18,6.18,0,0,1-2-4.4C370,8,371.84,5,376.57,5c3.89,0,5.58,2.44,5.58,4.81,0,2.56-1.62,4-3.34,5.24l-1.25.94,6.12,6.26a9.79,9.79,0,0,0,1.48-5.07h-2.3V14.63h7.44ZM375,17.81l-.81.54c-1.39.91-2.47,2-2.47,3.85,0,2.44,2,4.33,5.14,4.33a6.06,6.06,0,0,0,4.8-1.89Zm1.35-4.2c1.32-.84,2.68-1.86,2.68-3.48a2.46,2.46,0,0,0-2.74-2.54,2.8,2.8,0,0,0-3.08,2.54c0,1.28.81,2.3,1.86,3.35l.57.61Z"/><path class="cls-5" d="M420.39,28.29a17.11,17.11,0,0,1-6.19,1.21c-5.81,0-9.26-3.61-9.26-9.12,0-5.21,2.94-9.27,8.62-9.27,5.27,0,7.95,3.86,7.95,9.3v.51H408.93c0,3.41,2.53,5.61,6,5.61a12.51,12.51,0,0,0,5.64-1.35Zm-2.87-9.94V18a4,4,0,0,0-4.16-4.13c-3.22,0-4.3,2.34-4.43,4.47Z"/><path class="cls-5" d="M435.23,16.55l-.07-2.09a5.54,5.54,0,0,0-2.87-.58c-1.76,0-3.55.41-3.55,2.13,0,1.36,1.15,1.73,2.23,2l4.3.85c2,.41,4.26,1.25,4.26,4.84,0,4.63-4,5.84-7.88,5.84a19.38,19.38,0,0,1-6.39-1l-.07-4.77h3.38l.07,2.33a10.71,10.71,0,0,0,3.75.71c1.79,0,3.55-.67,3.55-2.47,0-1.48-1.11-2-2.53-2.23l-2.81-.51C427.89,21,425,20,425,16.66c0-4.13,3.62-5.55,7.48-5.55a18.59,18.59,0,0,1,6.12,1.15l.06,4.29Z"/><path class="cls-5" d="M453.73,16.55l-.07-2.09a5.58,5.58,0,0,0-2.88-.58c-1.76,0-3.55.41-3.55,2.13,0,1.36,1.15,1.73,2.23,2l4.3.85c2,.41,4.26,1.25,4.26,4.84,0,4.63-4,5.84-7.88,5.84a19.44,19.44,0,0,1-6.39-1l-.07-4.77h3.38l.07,2.33a10.77,10.77,0,0,0,3.75.71c1.8,0,3.56-.67,3.56-2.47,0-1.48-1.12-2-2.54-2.23l-2.81-.51c-2.7-.5-5.64-1.52-5.64-4.86,0-4.13,3.61-5.55,7.47-5.55A18.59,18.59,0,0,1,457,12.26l.07,4.29Z"/><path class="cls-5" d="M463.19,12.7a15.14,15.14,0,0,1,7-1.59c5.21,0,6.87,2.57,6.87,6.73,0,2.84-.1,5.65-.14,8.49h2.37V29.1h-5.58a21.94,21.94,0,0,1,.31-3.65h-.07a5.65,5.65,0,0,1-5.85,4.05c-4.23,0-5.62-2.8-5.62-5,0-4.64,4.7-5.24,7.58-5.38l3.62-.2V17.57c0-2.17-.78-3.69-3.89-3.69a9.11,9.11,0,0,0-3.18.61v2.57h-3.38ZM469,26.53a4.36,4.36,0,0,0,4.53-4.46v-.71c-3.92,0-7.34.2-7.34,2.8C466.23,25.48,467.25,26.53,469,26.53Z"/><path class="cls-5" d="M482.83,26.33h2.3l.07-12h-2.67V11.52H489l-.06,14.81h2.36V29.1h-8.45Zm4.26-23.64a2.58,2.58,0,0,1,2.6,2.6,2.6,2.6,0,1,1-2.6-2.6Z"/></g></svg>