<?xml version="1.0" encoding="UTF-8" standalone="no"?>
<!-- Created with Inkscape (http://www.inkscape.org/) -->

<svg
   xmlns:dc="http://purl.org/dc/elements/1.1/"
   xmlns:cc="http://creativecommons.org/ns#"
   xmlns:rdf="http://www.w3.org/1999/02/22-rdf-syntax-ns#"
   xmlns:svg="http://www.w3.org/2000/svg"
   xmlns="http://www.w3.org/2000/svg"
   xmlns:sodipodi="http://sodipodi.sourceforge.net/DTD/sodipodi-0.dtd"
   xmlns:inkscape="http://www.inkscape.org/namespaces/inkscape"
   version="1.1"
   id="svg297"
   width="724.41278"
   height="509.2319"
   viewBox="0 0 724.41278 509.2319"
   sodipodi:docname="logodark.svg"
   inkscape:version="0.92.1 r15371">
  <metadata
     id="metadata303">
    <rdf:RDF>
      <cc:Work
         rdf:about="">
        <dc:format>image/svg+xml</dc:format>
        <dc:type
           rdf:resource="http://purl.org/dc/dcmitype/StillImage" />
        <dc:title></dc:title>
      </cc:Work>
    </rdf:RDF>
  </metadata>
  <defs
     id="defs301" />
  <sodipodi:namedview
     pagecolor="#ffffff"
     bordercolor="#666666"
     borderopacity="1"
     objecttolerance="10"
     gridtolerance="10"
     guidetolerance="10"
     inkscape:pageopacity="0"
     inkscape:pageshadow="2"
     inkscape:window-width="1920"
     inkscape:window-height="983"
     id="namedview299"
     showgrid="false"
     inkscape:zoom="1.0772728"
     inkscape:cx="476.83545"
     inkscape:cy="218.5298"
     inkscape:window-x="0"
     inkscape:window-y="27"
     inkscape:window-maximized="1"
     inkscape:current-layer="svg297"
     fit-margin-top="0"
     fit-margin-left="0"
     fit-margin-right="0"
     fit-margin-bottom="0" />
  <path
     style="fill:#000000;stroke-width:1.33333337"
     d="m 574.11062,508.10565 c -1.51214,-0.95732 -1.7014,-3.84112 -0.97725,-14.89121 0.49395,-7.5372 1.19784,-14.00376 1.56423,-14.37014 0.36637,-0.36637 1.37613,0.0439 2.24392,0.91164 0.86777,0.86778 3.49561,1.57778 5.83965,1.57778 11.18372,0 20.56369,-22.4401 20.51847,-49.08718 -0.0248,-14.6308 -1.6926,-18.34537 -8.07678,-17.98928 l -4.60537,0.2569 0.84915,-12.00815 c 0.72024,-10.18517 1.34389,-12.55193 4.10805,-15.59021 7.28397,-8.00635 11.00305,-17.39092 13.22615,-33.37443 1.69529,-12.18865 0.5765,-23.02484 -2.80548,-27.17309 -2.43831,-2.99076 -2.53832,-3.00028 -6.9297,-0.65929 -2.45062,1.30638 -6.49245,5.36001 -8.98186,9.00805 -2.4894,3.64803 -4.63152,6.47916 -4.76028,6.2914 -0.85487,-1.24663 2.20346,-28.24979 3.47389,-30.67243 5.50956,-10.50642 15.35672,-18.08578 21.49548,-16.54505 7.64544,1.91888 11.34203,19.92841 9.07992,44.23671 -1.76583,18.97518 -4.3876,31.68684 -8.82108,42.76878 -3.10365,7.75791 -3.22555,8.73464 -1.32701,10.63318 3.364,3.364 4.09781,8.18921 4.04089,26.57075 -0.1232,39.79663 -14.00005,81.0872 -30.03893,89.38123 -4.324,2.23603 -6.45979,2.40567 -9.11606,0.72404 z m 50.54534,-38.89861 c 10e-4,-1.03034 3.60182,-44.15868 8,-95.84079 4.39816,-51.6821 7.99666,-94.88681 7.99666,-96.01045 0,-2.59066 26.52499,-18.61704 32.38727,-19.56836 27.02872,-4.38614 21.87406,108.58627 -7.71753,169.14185 -7.22067,14.77624 -11.53167,20.14524 -25.05318,31.20172 -6.02244,4.92452 -11.99989,9.85271 -13.28322,10.95151 -1.94467,1.66505 -2.33278,1.68578 -2.33,0.12453 z m 21.75758,-37.20666 c 13.86399,-11.82917 20.99581,-25.07238 27.61375,-51.27654 10.214,-40.44296 10.78515,-84.56364 1.21854,-94.13025 -3.87587,-3.87587 -7.68783,-3.19832 -17.95935,3.19212 l -9.29888,5.78532 -5.54135,63.21468 c -3.04773,34.76808 -5.94076,67.32889 -6.42895,72.35738 -0.57705,5.94385 -0.41718,8.97616 0.45692,8.66667 0.73951,-0.26183 5.2122,-3.77604 9.93932,-7.80938 z M 447.84455,322.33372 c 1.74298,-67.20938 2.18047,-86.12301 3.4928,-150.99999 0.7417,-36.66667 1.69858,-74.543366 2.12639,-84.169966 l 0.77785,-17.502888 24.20552,-6.29416 c 13.31303,-3.46179 27.14531,-7.12982 30.73842,-8.15118 l 6.53289,-1.85701 -0.80753,18.19537 c -0.44415,10.00746 -1.28395,18.626828 -1.86624,19.154158 -0.58228,0.52733 -10.29096,3.69601 -21.57486,7.04153 -11.28388,3.345816 -20.97134,6.570786 -21.52769,7.166906 -1.42809,1.53015 -3.16555,87.08481 -1.76843,87.07976 0.63008,-0.003 9.47439,-3.30228 19.65399,-7.33334 10.1796,-4.03105 19.0296,-7.32918 19.66667,-7.32918 1.28636,0 1.5987,24.13476 0.39041,30.16666 -0.70039,3.49639 -2.54629,4.60155 -21,12.57287 l -20.23212,8.73952 -0.86147,13.92714 c -1.63225,26.38838 -2.28666,69.26047 -1.0572,69.26047 0.66559,0 10.54806,-4.86698 21.96103,-10.81551 l 20.75084,-10.8155 -0.88335,15.8155 c -0.68622,12.28636 -1.36977,16.20416 -3.06326,17.5572 -2.63695,2.10685 -54.52124,30.92497 -55.67747,30.92497 -0.44864,0 -0.43837,-14.55 0.0228,-32.33333 z m -102.52527,8.33211 c -11.73333,-3.60358 -24.63333,-7.68188 -28.66666,-9.06291 l -7.33334,-2.51096 -0.30774,-6.54579 c -0.34942,-7.43203 -3.90079,-155.90516 -5.23543,-218.879506 -0.74988,-35.382378 -0.59955,-41.666108 0.99672,-41.662918 3.94331,0.008 56.58383,8.08304 61.7364,9.47048 43.89318,11.81921 74.4196,75.424434 74.48288,155.192834 0.0385,48.54164 -10.67813,84.26148 -31.6436,105.47198 -17.35088,17.55367 -29.40901,19.15945 -64.02923,8.52679 z m 37.12627,-28.80115 c 41.40126,-14.10682 48.42399,-128.12251 11.09047,-180.05631 -8.21068,-11.4217 -19.84736,-19.6147 -32.8909,-23.157686 -7.90276,-2.14642 -35.1639,-6.58051 -35.90924,-5.84072 -0.75065,0.74508 2.64752,198.208416 3.43294,199.483276 1.28025,2.07807 36.40994,11.52835 43.24628,11.63374 2.61936,0.0404 7.58306,-0.88766 11.03045,-2.0623 z m 134.74358,-2.86429 c 1.34644,-27.44724 3.27811,-68.99519 4.07584,-87.66667 0.40732,-9.53333 1.31983,-29.93333 2.0278,-45.33333 0.70797,-15.4 1.91255,-42.40001 2.67683,-60.00006 0.76428,-17.600336 1.73333,-37.506504 2.15344,-44.236264 l 0.76384,-12.23592 5.30605,-0.89645 c 2.91833,-0.49305 5.49855,-0.68689 5.73381,-0.43075 0.23528,0.25614 4.44579,20.26571 9.3567,44.465718 12.29982,60.611546 27.52866,133.241176 28.05049,133.779316 0.69517,0.71688 1.88368,-12.17714 3.29795,-35.77892 2.40082,-40.06616 9.34953,-149.944844 9.68804,-153.195034 0.26061,-2.50242 1.56054,-3.55533 5.99937,-4.85933 3.11667,-0.91558 5.66667,-1.18981 5.66667,-0.60938 0,0.58043 -3.6,54.878928 -8,120.663744 -4.4,65.78441 -8,120.93573 -8,122.55849 0,2.05373 -1.62095,3.86149 -5.33334,5.94796 -2.93333,1.64863 -5.33333,2.45391 -5.33333,1.78951 0,-1.28415 -25.07603,-118.12696 -31.77583,-148.06083 -2.18688,-9.77068 -4.33194,-18.12071 -4.76682,-18.55559 -0.43487,-0.43488 -0.77959,1.55933 -0.76603,4.43156 0.0393,8.31993 -8.06193,177.98907 -8.78017,183.8889 -0.5495,4.51363 -1.45284,5.79441 -5.87771,8.33333 -2.87563,1.65 -5.62648,3 -6.11299,3 -0.48651,0 -0.50928,-7.65 -0.0507,-17 z m -245.48203,8.71569 c -7.6481,-2.25933 -8.32834,-2.77342 -8.9283,-6.74734 -0.86768,-5.74739 -10.37258,-255.833454 -9.7471,-256.458934 0.26901,-0.26902 4.64377,0.26375 9.72168,1.18393 l 9.23257,1.67305 4.30189,125.983674 c 2.36604,69.2908 4.16604,128.41957 4,131.39729 l -0.30189,5.41401 z m -66.76393,-18.5439 c -7.21433,-3.57103 -16.00808,-12.0779 -22.0468,-21.32758 -4.27404,-6.54669 -4.75773,-8.29085 -5.50314,-19.84421 -0.44948,-6.96667 -1.12332,-16.26667 -1.49743,-20.66667 l -0.68017,-8 6.45685,12.21006 c 10.58735,20.02089 20.53053,29.78994 30.32096,29.78994 8.43819,0 13.45875,-11.58188 12.20497,-28.1556 -1.30902,-17.30414 -6.11046,-27.71782 -27.07632,-58.72479 -6.77352,-10.01755 -14.4461,-22.44456 -17.05018,-27.61558 -20.00062,-39.71598 -17.51955,-100.075944 4.58341,-111.505824 5.44799,-2.81726 16.38553,-2.53494 22.49245,0.58057 2.78058,1.41855 8.40682,6.19889 12.50275,10.62299 8.34581,9.01447 8.08445,7.94057 9.60469,39.46451 l 0.70731,14.666994 -3.36832,-5.885306 C 216.35125,76.885636 206.61135,67.999996 197.23776,67.999996 c -4.69471,0 -6.27484,0.70522 -9.09823,4.06062 -4.89178,5.81356 -6.60557,13.53095 -5.56714,25.069478 1.5154,16.838816 6.16081,26.556106 25.2546,52.827876 23.08493,31.7633 31.00597,52.99267 32.35266,86.70909 0.56827,14.22722 0.24735,21.00029 -1.34934,28.47892 -4.91531,23.02226 -17.66011,32.05841 -33.88714,24.0262 z M 136.65261,265.51226 C 108.38217,256.62508 107.97905,256.44638 107.48685,252.58379 105.38128,236.05974 86.616758,21.814736 87.217198,21.153866 c 1.20768,-1.32923 60.415842,7.86309 61.452722,9.5408 1.05919,1.7138 3.02231,30.71016 2.13896,31.59351 -0.31927,0.31926 -10.52035,-1.07965 -22.66909,-3.1087 -12.14874,-2.02904 -22.34902,-3.42449 -22.66731,-3.10099 -0.81443,0.82776 5.19031,71.114324 6.21744,72.776254 0.46335,0.74972 10.43175,3.40744 22.15199,5.90604 l 21.3095,4.54289 0.77758,10.01503 c 0.42765,5.50827 1.05394,12.56503 1.39176,15.68169 0.3378,3.11667 0.13293,5.66667 -0.45539,5.66667 -0.58825,0 -10.47677,-2.31751 -21.97449,-5.15 -13.17951,-3.24683 -20.91111,-4.60184 -20.92166,-3.66667 -0.0387,3.42366 5.75276,69.52504 6.13022,69.96876 0.22712,0.26699 10.45081,3.42331 22.71933,7.01405 12.26851,3.59074 22.47292,6.69514 22.67644,6.89867 1.06517,1.06516 2.05015,28.92523 1.02045,28.86365 -0.658,-0.0393 -14.09637,-4.12681 -29.86304,-9.08326 z m 484.44533,-11.22579 c -7.41194,-4.15616 -13.53669,-18.73297 -16.3778,-38.97888 -1.86453,-13.28685 -1.91948,-52.92614 -0.0979,-70.64053 6.79126,-66.044144 25.7728,-117.992304 47.0866,-128.865794 7.15937,-3.65244 13.40723,-1.89652 20.26636,5.69572 l 4.94876,5.47769 -0.95789,14.66314 c -0.52684,8.06473 -1.36912,16.20081 -1.87174,18.08016 -0.89204,3.33544 -0.99842,3.27271 -4.45646,-2.628 -16.20687,-27.65491 -39.89543,1.65505 -50.30561,62.243734 -5.81709,33.85611 -6.08757,72.70695 -0.63402,91.071 2.79964,9.42743 8.17432,15.38544 13.73644,15.22729 8.10352,-0.2304 15.3575,-7.98861 25.83575,-27.63161 2.73829,-5.13333 4.99244,-8.73333 5.00922,-8 0.0168,0.73334 -0.60398,8.23334 -1.37949,16.66667 -1.30497,14.19088 -1.79295,15.97906 -6.54932,24 -7.1423,12.04444 -13.70916,19.28332 -20.45608,22.54945 -6.51715,3.15489 -9.64592,3.39753 -13.79682,1.06996 z m -533.108562,-4.10483 -7.99656,-2.85644 -10.27665,-29.32908 c -19.18623,-54.75653 -25.80084,-69.37842 -33.51239,-74.08058 -5.87113,-3.57995 -9.11784,-3.41595 -8.27884,0.41819 1.02728,4.69458 10.28108,89.23082 9.81243,89.6395 -0.22995,0.20053 -3.13264,-0.43997 -6.45042,-1.42336 l -6.03233,-1.78797 -6.4366,-55.71408 C 15.277878,144.40507 9.4958078,94.433334 5.9689778,63.999996 2.4421381,33.566666 -0.23646186,8.456276 0.01654824,8.199136 c 0.96933,-0.985179 27.62739976,3.90028 31.11041976,5.70142 10.51691,5.4385 21.15569,22.76588 26.19404,42.66216 8.50601,33.590088 7.27151,67.120854 -2.88437,78.342994 -2.26627,2.50419 -2.22168,2.8502 1.14048,8.85038 5.18628,9.25556 11.73888,25.80592 21.69821,54.80481 4.89112,14.24161 11.27791,32.16561 14.19287,39.83112 2.914972,7.66552 5.123942,14.09677 4.908842,14.29168 -0.21511,0.1949 -3.989552,-0.93102 -8.387662,-2.50206 z M 39.963638,113.34217 c 5.40064,-2.05332 7.83557,-9.32397 7.81717,-23.342166 -0.028,-21.319908 -6.45472,-40.669388 -15.46987,-46.576338 -3.40227,-2.22926 -15.65833,-4.99517 -15.65833,-3.53373 0,2.0244 6.69236,62.520204 7.41204,67.001304 0.68577,4.27002 1.40771,5.05655 5.68673,6.19555 6.6156,1.76097 6.2747,1.75244 10.21226,0.25538 z M 669.15581,225.79144 c 0.4288,-2.81841 5.00698,-51.62438 10.17374,-108.45773 5.16676,-56.833714 9.66966,-104.604464 10.00646,-106.157594 0.51335,-2.36737 3.16388,-3.49901 16.39547,-6.999997 C 714.4122,1.879249 722.28311,0 723.22239,0 c 1.32626,0 1.49425,2.412279 0.75196,10.797796 -1.57208,17.75968 -1.08415,17.05401 -14.66154,21.20418 -6.54225,1.99976 -12.32442,4.4674 -12.84928,5.48364 -1.27474,2.46825 -6.96478,65.138604 -6.00158,66.101804 0.41481,0.41482 5.42741,-1.1258 11.13912,-3.4236 5.71169,-2.298136 10.88608,-4.174926 11.49865,-4.170996 1.13851,0.007 -0.11613,17.907726 -1.65972,23.679376 -0.64969,2.42934 -3.40527,4.314 -11.48772,7.85698 -5.84813,2.56356 -11.29841,5.36831 -12.11172,6.23279 -1.54467,1.64184 -7.70813,63.496 -6.45221,64.75192 0.39564,0.39565 6.16154,-2.1886 12.8131,-5.74279 l 12.09376,-6.46213 -0.91676,11.17904 c -0.50422,6.14847 -1.17493,12.07905 -1.49046,13.17905 -0.52271,1.82222 -29.23542,18.71521 -33.63848,19.79105 -1.45995,0.35672 -1.70128,-0.673 -1.0937,-4.66667 z"
     id="path3977"
     inkscape:connector-curvature="0" />
</svg>
